<?xml version="1.0" standalone="no"?>
<!DOCTYPE svg PUBLIC "-//W3C//DTD SVG 20010904//EN"
 "http://www.w3.org/TR/2001/REC-SVG-20010904/DTD/svg10.dtd">
<svg version="1.0" xmlns="http://www.w3.org/2000/svg"
 width="460.000000pt" height="460.000000pt" viewBox="0 0 460.000000 460.000000"
 preserveAspectRatio="xMidYMid meet">
<metadata>
Created by potrace 1.15, written by Peter Selinger 2001-2017
</metadata>
<g transform="translate(0.000000,460.000000) scale(0.100000,-0.100000)"
fill="#000000" stroke="none">
<path d="M1312 3334 c-5 -11 -18 -46 -28 -79 -23 -75 -26 -286 -5 -357 l13
-46 -45 -64 c-107 -151 -140 -261 -140 -463 0 -520 248 -817 748 -895 44 -7
82 -14 83 -16 2 -1 -10 -22 -26 -47 -29 -41 -72 -150 -72 -181 0 -23 -124 -60
-205 -60 -135 -1 -236 57 -323 186 -90 133 -179 197 -288 206 -108 8 -136 -32
-62 -90 109 -85 173 -161 222 -263 55 -114 79 -145 147 -197 77 -58 163 -82
294 -83 61 0 131 3 158 7 l47 8 0 -75 0 -75 476 0 476 0 -4 218 c-6 243 -18
306 -81 399 l-33 49 104 18 c245 41 430 136 554 284 55 65 123 211 148 312 73
307 36 567 -109 760 -23 30 -41 57 -41 60 0 3 7 37 15 75 8 39 15 98 15 131 0
69 -25 212 -45 261 -13 31 -17 33 -67 33 -97 0 -211 -42 -374 -136 l-97 -56
-66 17 c-222 56 -526 58 -772 4 l-97 -22 -44 31 c-61 42 -190 107 -263 132
-33 12 -92 24 -131 27 -64 5 -73 4 -82 -13z"/>
</g>
</svg>
