<?xml version="1.0" standalone="no"?>
<!DOCTYPE svg PUBLIC "-//W3C//DTD SVG 20010904//EN"
 "http://www.w3.org/TR/2001/REC-SVG-20010904/DTD/svg10.dtd">
<svg version="1.0" xmlns="http://www.w3.org/2000/svg"
 width="512.000000pt" height="512.000000pt" viewBox="0 0 512.000000 512.000000"
 preserveAspectRatio="xMidYMid meet">
<metadata>
Created by potrace 1.15, written by Peter Selinger 2001-2017
</metadata>
<g transform="translate(0.000000,512.000000) scale(0.100000,-0.100000)"
fill="#000000" stroke="none">
<path d="M1110 4199 c-81 -41 -156 -115 -195 -194 -28 -56 -30 -67 -30 -170 1
-98 4 -116 27 -168 37 -79 112 -155 195 -197 65 -33 72 -35 173 -35 99 0 108
2 169 33 204 107 285 346 184 545 -35 71 -116 152 -182 184 -49 24 -70 28
-166 31 -107 3 -112 3 -175 -29z"/>
<path d="M3259 3159 c-157 -23 -367 -157 -482 -309 l-27 -35 0 148 0 147 -330
0 -330 0 0 -1115 0 -1115 325 0 c179 0 326 1 326 3 1 1 5 306 8 677 7 661 8
676 29 734 82 223 350 330 565 227 80 -38 127 -90 175 -191 l35 -75 5 -687 5
-688 339 0 340 0 -4 803 -5 802 -27 100 c-88 334 -313 543 -617 575 -115 11
-248 11 -330 -1z"/>
<path d="M940 1995 l0 -1115 340 0 340 0 0 1115 0 1115 -340 0 -340 0 0 -1115z"/>
</g>
</svg>
