<?xml version="1.0" standalone="no"?>
<!DOCTYPE svg PUBLIC "-//W3C//DTD SVG 20010904//EN"
 "http://www.w3.org/TR/2001/REC-SVG-20010904/DTD/svg10.dtd">
<svg version="1.0" xmlns="http://www.w3.org/2000/svg"
 width="460.000000pt" height="460.000000pt" viewBox="0 0 460.000000 460.000000"
 preserveAspectRatio="xMidYMid meet">
<metadata>
Created by potrace 1.15, written by Peter Selinger 2001-2017
</metadata>
<g transform="translate(0.000000,460.000000) scale(0.100000,-0.100000)"
fill="#000000" stroke="none">
<path d="M2816 3224 c-89 -21 -174 -71 -246 -144 -113 -114 -167 -254 -157
-414 l5 -89 -67 7 c-99 10 -242 44 -354 83 -228 79 -413 197 -590 376 l-97 99
-26 -58 c-89 -202 -44 -435 116 -595 l68 -67 -37 5 c-20 3 -67 16 -106 29 -38
13 -74 25 -80 26 -12 4 -8 -80 7 -136 5 -22 24 -69 41 -105 56 -120 211 -251
327 -276 34 -8 35 -8 10 -17 -14 -5 -66 -9 -117 -9 l-92 0 21 -47 c67 -152
221 -279 378 -311 30 -6 66 -12 79 -13 21 -3 17 -8 -31 -41 -71 -48 -194 -108
-278 -135 -112 -36 -181 -46 -317 -46 -73 -1 -133 -3 -133 -6 0 -17 217 -122
330 -159 181 -60 275 -75 485 -75 281 -1 472 41 696 153 487 245 815 756 836
1303 6 145 6 148 32 165 67 44 242 235 228 250 -4 3 -30 -4 -59 -15 -53 -21
-175 -52 -206 -52 -10 0 -3 9 19 25 56 41 115 113 154 187 20 38 35 71 33 73
-1 1 -40 -15 -86 -36 -46 -22 -122 -51 -169 -64 l-85 -25 -44 38 c-127 112
-317 157 -488 116z"/>
</g>
</svg>
